<?xml version="1.0" encoding="UTF-8" standalone="no"?>
<!-- Created with Inkscape (http://www.inkscape.org/) -->

<svg
   xmlns:osb="http://www.openswatchbook.org/uri/2009/osb"
   xmlns:dc="http://purl.org/dc/elements/1.1/"
   xmlns:cc="http://creativecommons.org/ns#"
   xmlns:rdf="http://www.w3.org/1999/02/22-rdf-syntax-ns#"
   xmlns:svg="http://www.w3.org/2000/svg"
   xmlns="http://www.w3.org/2000/svg"
   xmlns:sodipodi="http://sodipodi.sourceforge.net/DTD/sodipodi-0.dtd"
   xmlns:inkscape="http://www.inkscape.org/namespaces/inkscape"
   version="1.1"
   id="svg2"
   width="540.1319"
   height="540.1319"
   viewBox="0 0 540.1319 540.1319"
   sodipodi:docname="brush.svg"
   inkscape:version="0.92.3 (2405546, 2018-03-11)">
  <metadata
     id="metadata8">
    <rdf:RDF>
      <cc:Work
         rdf:about="">
        <dc:format>image/svg+xml</dc:format>
        <dc:type
           rdf:resource="http://purl.org/dc/dcmitype/StillImage" />
        <dc:title></dc:title>
      </cc:Work>
    </rdf:RDF>
  </metadata>
  <defs
     id="defs6">
    <linearGradient
       id="linearGradient2423"
       osb:paint="solid">
      <stop
         style="stop-color:#2e9bcc;stop-opacity:1;"
         offset="0"
         id="stop2421" />
    </linearGradient>
    <inkscape:path-effect
       effect="bspline"
       id="path-effect879"
       is_visible="true"
       weight="33.333333"
       steps="2"
       helper_size="0"
       apply_no_weight="true"
       apply_with_weight="true"
       only_selected="false" />
    <inkscape:path-effect
       effect="bspline"
       id="path-effect875"
       is_visible="true"
       weight="33.333333"
       steps="2"
       helper_size="0"
       apply_no_weight="true"
       apply_with_weight="true"
       only_selected="false" />
    <inkscape:path-effect
       effect="bspline"
       id="path-effect865"
       is_visible="true"
       weight="33.333333"
       steps="2"
       helper_size="0"
       apply_no_weight="true"
       apply_with_weight="true"
       only_selected="false" />
    <inkscape:path-effect
       effect="bspline"
       id="path-effect861"
       is_visible="true"
       weight="33.333333"
       steps="2"
       helper_size="0"
       apply_no_weight="true"
       apply_with_weight="true"
       only_selected="false" />
    <inkscape:path-effect
       effect="bspline"
       id="path-effect857"
       is_visible="true"
       weight="33.333333"
       steps="2"
       helper_size="0"
       apply_no_weight="true"
       apply_with_weight="true"
       only_selected="false" />
    <inkscape:path-effect
       effect="bspline"
       id="path-effect853"
       is_visible="true"
       weight="33.333333"
       steps="2"
       helper_size="0"
       apply_no_weight="true"
       apply_with_weight="true"
       only_selected="false" />
    <inkscape:path-effect
       effect="bspline"
       id="path-effect845"
       is_visible="true"
       weight="33.333333"
       steps="2"
       helper_size="0"
       apply_no_weight="true"
       apply_with_weight="true"
       only_selected="false" />
    <inkscape:path-effect
       effect="bspline"
       id="path-effect841"
       is_visible="true"
       weight="33.333333"
       steps="2"
       helper_size="0"
       apply_no_weight="true"
       apply_with_weight="true"
       only_selected="false" />
    <inkscape:path-effect
       effect="bspline"
       id="path-effect837"
       is_visible="true"
       weight="33.333333"
       steps="2"
       helper_size="0"
       apply_no_weight="true"
       apply_with_weight="true"
       only_selected="false" />
    <inkscape:path-effect
       effect="bspline"
       id="path-effect823"
       is_visible="true"
       weight="33.333333"
       steps="2"
       helper_size="0"
       apply_no_weight="true"
       apply_with_weight="true"
       only_selected="false" />
    <inkscape:path-effect
       effect="bspline"
       id="path-effect819"
       is_visible="true"
       weight="33.333333"
       steps="2"
       helper_size="0"
       apply_no_weight="true"
       apply_with_weight="true"
       only_selected="false" />
  </defs>
  <sodipodi:namedview
     pagecolor="#ffffff"
     bordercolor="#666666"
     borderopacity="1"
     objecttolerance="10"
     gridtolerance="10"
     guidetolerance="10"
     inkscape:pageopacity="0"
     inkscape:pageshadow="2"
     inkscape:window-width="1920"
     inkscape:window-height="977"
     id="namedview4"
     showgrid="false"
     inkscape:zoom="0.70710678"
     inkscape:cx="168.72998"
     inkscape:cy="323.06435"
     inkscape:window-x="0"
     inkscape:window-y="28"
     inkscape:window-maximized="1"
     inkscape:current-layer="svg2" />
  <g
     id="g2573">
    <path
       sodipodi:nodetypes="ccccccccccccccccccccccccc"
       inkscape:original-d="m 12.572174,435.375 c 0.578389,-1.3197 1.155778,-2.63839 1.732167,-3.95609 7.247823,0.18971 14.496065,0.38045 21.742597,0.57217 6.294065,-3.05218 12.970269,-6.10418 19.453903,-9.15478 7.056498,-4.00547 14.114616,-8.01143 21.170424,-12.01564 11.823934,-9.34493 23.650845,-18.69201 35.474765,-28.03651 11.44341,-12.20623 22.88794,-24.41374 34.33042,-36.61911 13.732,-16.40193 27.46533,-32.80562 41.1965,-49.20693 8.39232,-10.68087 16.78476,-21.36215 25.17564,-32.04172 7.24778,-7.05708 14.49606,-14.11462 21.74259,-21.17043 8.20101,-4.38705 16.40331,-8.77433 24.60347,-13.15999 10.48932,-2.28936 20.9807,-4.57839 31.46955,-6.86609 10.87109,0.57112 21.7436,1.14335 32.6139,1.71653 7.43861,7.81802 14.87751,15.63841 22.31477,23.45911 0.57317,0.57118 1.14534,1.14335 1.71652,1.71653 -6.48364,-2.48042 -12.96827,-5.34129 -19.45391,-8.01044 -8.773,0.76196 -17.54565,1.5248 -26.31998,2.2887 -9.72715,7.24742 -19.45291,14.49406 -29.18086,21.7426 -11.63454,14.30499 -23.26739,28.60768 -34.90259,42.91302 -16.5933,20.40808 -33.18507,40.81405 -49.7791,61.22258 -13.92264,12.39675 -27.84479,24.79319 -41.76868,37.19128 -13.7322,8.77299 -27.84478,17.54566 -41.76867,26.31999 -14.30454,3.62307 -28.607682,7.24653 -42.913023,10.8713 -9.345272,-0.76396 -18.690005,-1.5268 -28.036507,-2.2887 -6.870971,-2.49704 -13.741598,-4.99259 -20.613896,-7.48738 z"
       inkscape:path-effect="#path-effect819"
       inkscape:connector-curvature="0"
       id="path817"
       d="m 16.297063,435.96305 c -3.14697,-1.90796 -2.569584,-3.22665 1.342745,-3.79003 3.912329,-0.56338 11.160571,-0.37264 17.948271,-1.76643 6.787701,-1.39379 13.429329,-4.51926 20.199388,-8.04735 6.770058,-3.52808 13.828177,-7.53404 23.268005,-14.20871 9.439828,-6.67467 21.266738,-16.02175 32.900338,-26.7972 11.63359,-10.77544 23.07813,-22.98295 35.66534,-37.28662 12.58721,-14.30367 26.32054,-30.70737 37.38226,-44.24847 11.06173,-13.5411 19.45417,-24.22238 27.27357,-33.09065 7.8194,-8.86827 15.06768,-15.92581 22.79154,-21.64706 7.72386,-5.72126 15.92617,-10.10853 25.27089,-13.44586 9.34472,-3.33732 19.8361,-5.62635 30.51596,-6.48449 10.67987,-0.85814 21.55237,-0.2859 30.70634,3.90966 9.15397,4.19557 16.59288,12.01595 20.59811,16.2119 4.00522,4.19596 4.57739,4.76813 1.65499,3.73307 -2.92241,-1.03505 -9.47419,-3.73284 -17.10322,-4.68659 -7.62903,-0.95375 -16.40168,-0.1909 -25.6524,3.81439 -9.25072,4.00529 -18.97647,11.25193 -29.65784,22.02856 -10.68136,10.77664 -22.31421,25.07933 -36.42846,42.43604 -14.11425,17.35671 -30.70602,37.76268 -45.96427,54.1654 -15.25825,16.40272 -29.18041,28.79915 -43.0355,39.34178 -13.85509,10.54262 -27.91346,19.40132 -42.02767,25.60024 -14.114212,6.19892 -28.417353,9.82238 -40.242793,11.25297 -11.825439,1.43059 -21.170173,0.66775 -29.279084,-0.96165 -8.108912,-1.6294 -14.979539,-4.12495 -18.12651,-6.0329 z"
       style="fill:#ef3388;fill-opacity:1;stroke:#000000;stroke-width:1px;stroke-linecap:butt;stroke-linejoin:miter;stroke-opacity:1" />
    <path
       sodipodi:nodetypes="cccccccccccccccccccccccc"
       inkscape:original-d="m 8.2969172,429.13041 c 3.3385458,5.52995 6.6760928,11.06089 10.0126388,16.59284 7.821117,4.38589 15.640412,8.77233 23.459118,13.15999 15.067595,1.90617 30.135478,3.81349 45.201716,5.72174 19.07237,0.18971 38.14591,0.38045 57.21736,0.57217 20.97961,-1.71743 41.9604,-3.43404 62.9391,-5.14956 17.16533,-2.67101 34.33142,-5.34129 51.49563,-8.01043 13.73226,-3.62453 27.08388,-7.24853 40.62432,-10.8713 8.96427,-5.34082 17.92911,-10.68157 26.89216,-16.02086 8.96388,-8.77318 17.92911,-17.54766 26.89216,-26.31999 6.86631,-12.9688 13.73317,-25.93953 20.59825,-38.9078 3.24302,-15.63897 6.48564,-31.27983 9.72696,-46.91824 -1.67965,-6.7236 -3.43205,-13.73317 -5.14957,-20.59825 0.001,-4.00621 0.001,-8.01143 0,-12.01565 -11.06062,-10.68118 -22.12304,-21.36215 -33.18607,-32.04172 -9.91669,-2.09897 -19.83435,-4.19694 -29.75303,-6.29391 -10.2989,3.24156 -20.59725,6.48364 -30.89737,9.72695 -13.54202,12.96978 -27.08189,25.93754 -40.62433,38.90781 -12.96924,18.1192 -25.93754,36.23666 -38.9078,54.35649 -20.78928,19.64486 -41.57695,39.28826 -62.36693,58.93389 -14.30405,9.15423 -28.60768,18.30855 -42.91302,27.46433 -12.778583,2.8601 -25.556088,6.10218 -38.335633,9.15478 -8.582391,-0.57323 -17.164208,-1.14535 -25.747813,-1.71652 -9.059263,-3.24361 -18.117564,-6.48551 -27.1778468,-9.72676 z"
       inkscape:path-effect="#path-effect823"
       inkscape:connector-curvature="0"
       id="path821"
       d="m 14.495529,433.51697 c -2.86124,1.1441 0.476304,6.67504 6.05539,11.6342 5.579086,4.95916 13.398384,9.34559 24.841797,12.49247 11.443413,3.14687 26.511295,5.0542 43.580665,6.10313 17.069369,1.04893 36.142909,1.23967 56.168479,0.47676 20.02557,-0.7629 41.00636,-2.47951 60.07841,-4.67281 19.07204,-2.19331 36.23813,-4.86359 51.68002,-8.03431 15.44189,-3.17072 28.80625,-6.7471 40.0586,-11.22909 11.25236,-4.48198 20.2172,-9.82274 29.18058,-16.87911 8.96338,-7.05638 17.92861,-15.83086 25.8431,-26.70153 7.91449,-10.87067 14.78135,-23.8414 19.8352,-38.145 5.05386,-14.3036 8.29648,-29.94446 9.07711,-41.12524 0.78062,-11.18078 -0.97177,-18.19035 -1.82995,-23.62614 -0.85817,-5.43579 -0.85817,-9.44101 -6.38897,-16.7832 -5.5308,-7.34219 -16.59323,-18.02316 -27.08272,-24.41236 -10.48948,-6.3892 -20.40715,-8.48717 -30.51571,-7.91514 -10.10857,0.57202 -20.40693,3.8141 -32.32808,11.92035 -11.92116,8.10624 -25.46103,21.074 -38.71698,36.61866 -13.25594,15.54465 -26.22423,33.66212 -43.1039,52.54454 -16.87966,18.88243 -37.66733,38.52583 -55.21428,52.92587 -17.54695,14.40005 -31.85058,23.55437 -45.37099,29.65276 -13.520408,6.0984 -26.341005,9.16004 -37.022095,10.39989 -10.68109,1.23986 -19.262907,0.66774 -28.084522,-1.23958 -8.821615,-1.90732 -17.879915,-5.14922 -20.741154,-4.00512 z"
       style="fill:#bc086b;fill-opacity:1;stroke:#000000;stroke-width:1px;stroke-linecap:butt;stroke-linejoin:miter;stroke-opacity:1" />
    <path
       sodipodi:nodetypes="ccccc"
       inkscape:original-d="m 404.39465,252.44332 120.5,-103 -22.30761,-29.92893 -113.69239,119.42893 z"
       inkscape:path-effect="#path-effect875"
       inkscape:connector-curvature="0"
       id="path873"
       d="m 404.39465,252.44332 c 0,0 120.5,-103 120.5,-103 0,0 -22.30761,-29.92893 -22.30761,-29.92893 0,0 -113.69239,119.42893 -113.69239,119.42893 0,0 15.5,13.5 15.5,13.5 z"
       style="fill:#0e6baa;fill-opacity:1;stroke:#000000;stroke-width:1px;stroke-linecap:butt;stroke-linejoin:miter;stroke-opacity:1" />
    <path
       sodipodi:nodetypes="ccccc"
       inkscape:original-d="m 398.08704,246.01439 -44.5267,-44.59719 104.0267,-116.402811 45,34.500001 z"
       inkscape:path-effect="#path-effect879"
       inkscape:connector-curvature="0"
       id="path877"
       d="m 398.08704,246.01439 c 0,0 -44.5267,-44.59719 -44.5267,-44.59719 0,0 104.0267,-116.402811 104.0267,-116.402811 0,0 45,34.500001 45,34.500001 0,0 -104.5,126.5 -104.5,126.5 z"
       style="fill:#2e9bcc;fill-opacity:1;stroke:#000000;stroke-width:1px;stroke-linecap:butt;stroke-linejoin:miter;stroke-opacity:1" />
    <rect
       ry="10.365995"
       transform="matrix(0.71697929,0.69709447,-0.69382955,0.72013927,0,0)"
       y="-114.32715"
       x="388.72577"
       height="60.759991"
       width="83.40239"
       id="rect825"
       style="opacity:0.98999999;fill:#00dc00;fill-opacity:1;stroke:#191922;stroke-width:0.99816579;stroke-miterlimit:4;stroke-dasharray:none;stroke-dashoffset:40;stroke-opacity:1" />
  </g>
</svg>
