<?xml version="1.0"?>
<svg xmlns="http://www.w3.org/2000/svg" id="Layer_1" data-name="Layer 1" viewBox="0 0 64 64"><title>Icons8 RSL Colored Part 6</title><polygon points="5.42 54.75 5.42 60.75 17.12 48.96 14.33 46.88 5.42 54.75" style="fill:#f283a5;"/><polygon points="57.58 4.59 57.58 10.25 49.1 18.6 45.6 15 57.58 4.59" style="fill:#72caaf;"/><path d="M37.26,14.74h8a8,8,0,0,1,8,8v8a0,0,0,0,1,0,0h-24a0,0,0,0,1,0,0v-8a8,8,0,0,1,8-8Z" transform="translate(28.16 -22.52) rotate(45)" style="fill:#c2cde7;"/><path d="M27.12,19.91l17,17,.46-.46a5,5,0,0,0,0-7.07l-9.9-9.9a5,5,0,0,0-7.07,0Z" style="fill:#acb7d0;"/><path d="M21.49,27.51h24a4,4,0,0,1,4,4v1a1,1,0,0,1-1,1h-30a1,1,0,0,1-1-1v-1a4,4,0,0,1,4-4Z" transform="translate(31.38 -14.74) rotate(45)" style="fill:#d3dded;"/><path d="M17.74,34.26h8a8,8,0,0,1,8,8v8a0,0,0,0,1,0,0h-24a0,0,0,0,1,0,0v-8A8,8,0,0,1,17.74,34.26Z" transform="translate(7.22 87.52) rotate(-135)" style="fill:#c2cde7;"/><path d="M17.51,31.49h24a4,4,0,0,1,4,4v1a1,1,0,0,1-1,1h-30a1,1,0,0,1-1-1v-1a4,4,0,0,1,4-4Z" transform="translate(26 79.74) rotate(-135)" style="fill:#d3dded;"/><path d="M36,44.95l-17-17-.46.46a5,5,0,0,0,0,7.07l9.9,9.9a5,5,0,0,0,7.07,0Z" style="fill:#acb7d0;"/><path d="M17.14,34.84a1,1,0,1,0,1.41,1.41L20,34.84a1,1,0,0,0-1.41-1.41Z" style="fill:#8d6c9f;"/><path d="M21.38,40.08a1,1,0,0,0,.71-.29l1.41-1.41A1,1,0,0,0,22.09,37l-1.41,1.41a1,1,0,0,0,.71,1.71Z" style="fill:#8d6c9f;"/><path d="M24.92,43.62a1,1,0,0,0,.71-.29L27,41.91a1,1,0,0,0-1.41-1.41l-1.41,1.41a1,1,0,0,0,.71,1.71Z" style="fill:#8d6c9f;"/><path d="M28.45,47.15a1,1,0,0,0,.71-.29l1.41-1.41A1,1,0,0,0,29.16,44l-1.41,1.41a1,1,0,0,0,.71,1.71Z" style="fill:#8d6c9f;"/><path d="M33.84,18.14l-1.41,1.41A1,1,0,1,0,33.84,21l1.41-1.41a1,1,0,0,0-1.41-1.41Z" style="fill:#8d6c9f;"/><path d="M37.37,21.68,36,23.09a1,1,0,1,0,1.41,1.41l1.41-1.41a1,1,0,0,0-1.41-1.41Z" style="fill:#8d6c9f;"/><path d="M40.91,25.21,39.5,26.63A1,1,0,1,0,40.91,28l1.41-1.41a1,1,0,0,0-1.41-1.41Z" style="fill:#8d6c9f;"/><path d="M44.45,28.75,43,30.16a1,1,0,1,0,1.41,1.41l1.41-1.41a1,1,0,0,0-1.41-1.41Z" style="fill:#8d6c9f;"/><path d="M55.87,9.54l-7.54,7.54-.71-.71-.71-.71L57.28,5.3a1,1,0,0,0-1.41-1.41L45.51,14.25l-.71-.71a9,9,0,0,0-12.73,0l-5,5a5,5,0,0,0-6.29.64l-.71.71a2,2,0,0,0-.45.69,2,2,0,0,0-.69.45l-.71.71A5,5,0,0,0,17.57,28l-5,5a9,9,0,0,0,0,12.73l.71.71L5.72,54a1,1,0,0,0,1.41,1.41l7.54-7.54.71.71.71.71L5.72,59.7a1,1,0,1,0,1.41,1.41L17.49,50.75l.71.71a9,9,0,0,0,12.73,0l5-5a5,5,0,0,0,6.29-.64l.71-.71a2,2,0,0,0,.45-.69,2,2,0,0,0,.69-.45l.71-.71A5,5,0,0,0,45.43,37l5-5a9,9,0,0,0,0-12.73l-.71-.71L57.28,11a1,1,0,0,0-1.41-1.41ZM29.51,50a7,7,0,0,1-9.9,0l-2.83-2.83-2.12-2.12h0L14,44.38a7,7,0,0,1,0-9.9l4.95-5L34.46,45.09Zm7.07-5.66-17-17a3,3,0,0,1,0-4.24l.43-.44h0L41.26,43.95h0l-.44.44A3.07,3.07,0,0,1,36.59,44.38Zm6.8-2.56-.43.44h0L21.74,21.05h0l.44-.44a3,3,0,0,1,4.24,0l17,17a3,3,0,0,1,0,4.24ZM49,20.62a7,7,0,0,1,0,9.9l-4.95,5L28.54,19.91l5-5a7,7,0,0,1,9.9,0l2.83,2.83,2.12,2.12h0Z" style="fill:#8d6c9f;"/></svg>
